<svg id="Layer_1" data-name="Layer 1" xmlns="http://www.w3.org/2000/svg" viewBox="0 0 520.12 403.14"><defs><style>.cls-1,.cls-2{fill:#275996;stroke:#f8f8f8;stroke-miterlimit:10;}.cls-1{stroke-width:4.6px;}.cls-2{stroke-width:5px;}</style></defs><title>gate</title><rect class="cls-1" x="33.06" y="190.52" width="25.5" height="199.17"/><path class="cls-2" d="M2617.67,3086.28c-5.33,0-25,24.85-30.71,24.85S2578.5,3082,2568.5,3082s-12.79,29.15-18.46,29.15-25.37-24.85-30.71-24.85H2507.5v6.5c6,0,13,6.67,13,13.33v29.17h96v-29.17c0-6.67,7-13.33,13-13.33v-6.5h-11.83Z" transform="translate(-2309.44 -3039.76)"/><rect class="cls-1" x="112.6" y="190.52" width="25.5" height="199.17"/><rect class="cls-1" x="192.14" y="190.52" width="25.5" height="199.17"/><polygon class="cls-2" points="485.06 143.52 485.06 122.02 495.5 111.52 335.06 111.52 335.06 94.52 260.06 94.52 185.06 94.52 185.06 111.52 24.62 111.52 35.06 122.02 35.06 143.52 6.14 143.52 23.06 160.02 23.06 190.52 260.06 190.52 497.06 190.52 497.06 160.02 513.98 143.52 485.06 143.52"/><rect class="cls-1" x="2771" y="3230.28" width="25.5" height="199.17" transform="translate(3258.06 3619.97) rotate(-180)"/><rect class="cls-1" x="2691.46" y="3230.28" width="25.5" height="199.17" transform="translate(3098.98 3619.97) rotate(-180)"/><rect class="cls-1" x="2611.92" y="3230.28" width="25.5" height="199.17" transform="translate(2939.9 3619.97) rotate(-180)"/><polyline class="cls-2" points="259.06 42.02 259.06 8.02 252.81 1.77"/><polyline class="cls-2" points="259.06 42.02 259.06 8.02 265.31 1.77"/><rect class="cls-1" x="26.14" y="389.68" width="39.35" height="11.15"/><rect class="cls-1" x="105.68" y="389.68" width="39.35" height="11.15"/><rect class="cls-1" x="185.22" y="389.68" width="39.35" height="11.15"/><rect class="cls-1" x="295.56" y="389.68" width="39.35" height="11.15"/><rect class="cls-1" x="375.1" y="389.68" width="39.35" height="11.15"/><rect class="cls-1" x="454.64" y="389.68" width="39.35" height="11.15"/><rect class="cls-1" x="26.14" y="190.52" width="39.35" height="11.15"/><rect class="cls-1" x="105.68" y="190.52" width="39.35" height="11.15"/><rect class="cls-1" x="185.22" y="190.52" width="39.35" height="11.15"/><rect class="cls-1" x="295.56" y="190.52" width="39.35" height="11.15"/><rect class="cls-1" x="375.1" y="190.52" width="39.35" height="11.15"/><rect class="cls-1" x="454.64" y="190.52" width="39.35" height="11.15"/></svg>