<svg id="Layer_1" data-name="Layer 1" xmlns="http://www.w3.org/2000/svg" viewBox="0 0 236.78 321.75"><defs><style>.cls-1{fill:#f8f8f8;}</style></defs><title>germany</title><path class="cls-1" d="M1055.39,183.73l17.28,2.89c-0.72-1.13-2.15-2.41-2.15-3.67s1.42-2.64,2.17-4a3.1,3.1,0,0,0,.57-1.51c-0.2-3,.31-3.46,4.25-3.3-1,2.62-3.56,5.5,1.09,7.33,0.86-1.39.29-4.51,3.4-4.14a3.49,3.49,0,0,1,1.63,1.64c-1.25,1.62-2.64,3.12-4.21,4.87a45.5,45.5,0,0,1,4.83,1.81c2.38,1.18,2,3,.82,5.26-5.51-6.22-6.37.29-8.63,3.32a8.23,8.23,0,0,1,1.36,1.13,11.81,11.81,0,0,1,1.06,1.94l8.26-2.54c3.16,2.34,6.36,4.51,9.29,7,1.18,1,1.78,2.66,2.67,4.08l-8.53,2.78c2.9,2.67,5.46,3.8,9,1.89,0.7,1.95,1.41,3.73,2,5.56,0.93,3,1.38,6.26,2.72,9.08,2.17,4.55.47,9.06,0.52,13.58a3.84,3.84,0,0,1-1.66,2.74c-2.79,1.73-3.6,4.12-3.1,6.48,2.9,2.64,5.42,5,8,7.25a7.6,7.6,0,0,0,1.65,1.07c3.73,1.88,4.53,4.76,2.32,8.39-1.32,2.16-.2,5.88,2.09,6.91,0.58,0.26,1.61.43,1.68,0.8,0.66,3.21,1.59,6.47,1.55,9.69,0,2.57-1.33,5.12-2.26,8.36,0.82,1.08,2.22,2.74,3.37,4.55a6.42,6.42,0,0,1,1.1,3.36c-0.13,4,.16,4.51,4.2,5.15a1.47,1.47,0,1,1,.3.08c4.68,9.62,2.9,18.53-1.67,27.32-3.46-.17-4.3-2.86-5.57-5.47-0.58-1.18-2.42-1.82-3.78-2.51a4.57,4.57,0,0,0-2-.05c-0.8,0-1.59.11-2.39,0.16a8.55,8.55,0,0,0,.76,2.55,14.73,14.73,0,0,0,2.64,2.26l-10.72,5.26a1.56,1.56,0,0,0-.6.23c-1.95,4.37-6.42,3.09-9.74,4.38l-0.74.3c-0.52,2.08-.27,5.38-4.15,3.21l-5.33,5.39-3.46.57c-0.13,3.2-1,4.21-4.49,2.77s-10.7,3.46-12.57,7.95c-0.37.88-.68,1.79-1.06,2.79l-4.37-5.44-1,3.66c1.7,1,3.35,2,2.71,4.69-0.18.78,1.85,2.21,3,3.16,2.19,1.78,4.48,3.43,6.61,5l-2.74,6.49c2.24,4.51,3.83,8.45,6.09,12,1.22,1.9,3.43,4,5.44,4.32a8.25,8.25,0,0,1,5.82,3.08c2.13,2.67,3.79,5.71,7.72,6.46,1.06,0.2,1.79,2.24,2.64,3.46a11.28,11.28,0,0,0,1.25,1.93c3.52-1.21,4.86,2.7,7.64,3.2a3.37,3.37,0,0,1,1.56,1.54c3,4.42,2.66,8.91-1.14,14-0.59-.39-1.18-0.81-1.8-1.18-3.68-2.18-4.86-1.55-5.18,2.75-0.41,5.48-1.92,7.38-7.21,8.74-4.38,1.13-7.56,4-10.41,7.25-0.35.4-.05,1.84,0.42,2.4,1.37,1.64,3.12,3,4.46,4.63,1.61,2,2.38,4.21.35,6.55a6.66,6.66,0,0,0-.78,2.11c5,0.2,5.82,1.5,4.25,6.12a8.58,8.58,0,0,0-.22,1.27c-0.19,1.07-.38,2.14-0.57,3.21-1.31-.37-2.82-0.44-3.87-1.17-1.49-1-3.26-1.75-3.28-4.42,0-2.45-2.83-3.21-4.74-1.38s-3.17,1.94-4.8-.24c-0.49-.66-1.79-0.85-2.76-1a40.17,40.17,0,0,0-4.45,0l1,3.3a1.18,1.18,0,0,1-.35.51c-4.36.57-8.75,1-13.07,1.73-1.37.24-2.54,1.49-3.85,2.18s-2.41,1.1-4,1.81c-0.72,2-3.94,3.7-6.75,3.36a8.59,8.59,0,0,0-2.55.44c-1.69.34-3,.41-4.11-1.55-1.69-2.95-7.93-4.68-11.37-3.66a14,14,0,0,1-2.26.29c0.48,5.91-3,10.53-8.15,10.72l1-4c-2.35.43-4.38,1.11-4-2.64,0.13-1.18-3-2.84-4.73-4a17.11,17.11,0,0,0-3.69-1.41c-1.21,2.06-5.21,3.77-8.32,3.12A2.32,2.32,0,0,1,983,473c-1.64-4.39-6-4.36-9.42-5.83a5.15,5.15,0,0,0-3.17.16c-1.33.39-2.3,1.42-3.51-.62-0.48-.81-3-0.43-4.92-0.62l1.43-2.91c-1.28-.32-2.4-0.58-3.52-0.88-1.76-.47-4.87,2-4.41,3.75,0.12,0.46,1.55.7,2.41,0.81a14.58,14.58,0,0,0,2.67-.14c0,0.62.32,1.6,0.05,1.78-0.66.44-1.77,0.29-2.34,0.79-3,2.61-5.79,1.94-8.88.22-0.55-.3-1.9.87-2.89,1.33-2.19,1-4.33,2.22-6.64.09-0.37-.34-1.7-0.07-2.28.35-2.91,2.11-4.42.19-6.14-1.8-2-2.36-1.81-5-1.33-7.69a58.2,58.2,0,0,1,2-6.57,2.74,2.74,0,0,0,.35-1.53c-3.14-5.28,1.32-8.88,2.83-13.11a11.11,11.11,0,0,0,1.06-2.69c0.45-7.39,3.82-13.14,9.23-18.06,1.58-1.44,2.19-3.94,3.31-6.07a18,18,0,0,0-12-3.81,6.88,6.88,0,0,1-6.68-3.73,3.58,3.58,0,0,0-3.32-1c-4.14,1.7-6.76,1.2-9.48-1.93a4.27,4.27,0,0,0-3.17-1.21c-0.62.05-1.12,1.5-2.11,3a13.82,13.82,0,0,1-2.49-2.58c-1.57-2.8-2.82-5.78-4.4-8.58a6.43,6.43,0,0,0-2.6-2.36c-2.73-1.39-3.28-2.65-1.79-5.28,1-1.69,2.13-3.26,3-5a13.32,13.32,0,0,0,.77-2.92c-5.93-2.23-9.64-6.48-10.29-12.43-0.46-4.3,3.65-8.82,7.46-9.85a21.42,21.42,0,0,0-.28-4c-0.27-1.05-.82-2.43-1.66-2.87-3.76-2-3.83-1.91-1.45-4.83-1.88-2.29-3.85-4.44-5.48-6.84-0.47-.69-0.13-2.13.19-3.11s1.65-2.17,1.54-2.28a35,35,0,0,0-3.69-3,6.77,6.77,0,0,0-.68-0.39L890,325.34l0.69,0.59,6-4.43c-2.44-1.06-2-2.39-.95-4a30.65,30.65,0,0,0,3.19-5.59c1.71-4.31-1.8-7.36-3-11a60.6,60.6,0,0,0-3.22-6.72l5.88-3.41c3,2.34,6.59,2,10.25.77,1-.34,2.11-0.57,3.13-1s2.08-.94,3.12-1.42a25.48,25.48,0,0,0-1.46-2.82,6.35,6.35,0,0,0-1.77-1.11l6.81-5.63c4.21-3.5,4.69-6.3,2.55-10-3-.86-5.87-0.86-7.12-2.26-1-1.13-.73-5.41.05-5.74,2.26-1,5.06-.61,8-0.8a4.28,4.28,0,0,0,.43-1.65c-0.23-3.93,1.23-7.29,3.24-10.52a5.24,5.24,0,0,0,1-2.43c0.09-4.42,0-8.84,0-13.6a1.89,1.89,0,1,0-.25-0.1c-1.49-.38-4.28-0.78-4.27-1.1,0.06-2.33-.59-5.1,2.13-6.64A1.42,1.42,0,0,0,925,224c0.55-3.59,2-5.41,5.43-5.21A39.62,39.62,0,0,0,943,217.2c2.8-.73,7.82,4.31,7.36,7.29-0.16,1-1.06,1.94-1.63,2.9l-1-.58a32.78,32.78,0,0,0,3.72,3.27,2.3,2.3,0,0,0,2.1-.65c0.32-1.1.58-3.12,0.08-3.41-2.31-1.33-1-2.71-.44-4.13,1,0.43,2,.84,3.06,1.28s2.15,0.95,3.44,1.52c-0.21-2.78-.8-5.3-0.45-7.68s1.63-4.55,2.74-7.44c3.83,4.08,7.41,3.86,11.43,2.23,1.5-.61,3.54.1,5.62-0.19-1.36-.4-2.76-1.21-4.09-1.12-4.49.31-7-1.69-8.06-6.45l3.81-.57c-0.83-1.06-1.33-2.38-2.14-2.61-2.57-.73-2.61-2.26-1.88-4.27s0.06-2.74-2.18-2.53c-1.12.1-2.33-.72-3.49-1.12,0.81-1.42,1.29-3.38,2.51-4.12s3.36-.49,5.8-0.74l-3-1.81c1.66-4.57,1.5-5.35-2-9.43-0.45,2.28-1.15,4.25-4.53,3,2.65-1.29,4.83-2.73,3.77-5.77-1.43-4.08-4.28-5-8.34-3L955,174.35l-1.2,0c0.14-2.35.12-4.72,0.48-7a22.12,22.12,0,0,1,1.59-4.67c0.93-2.3,1.92-1.35,3.14,0a7.74,7.74,0,0,0-1.72,1.68,4.67,4.67,0,0,0-.67,2.82,2.7,2.7,0,0,0,2.05,1.48c2.44,0.1,4.91-.32,7.35-0.16a65.23,65.23,0,0,1,9.39,1.26c1,0.22,1.86,1.48,3,2.41l6.64-1.86c2.61,0.81,4.68,4.2,8.4,2.59a3,3,0,0,1,1.28,1.68c0.56,3.4,1,6.83,1.42,10.21l4.69,2.07c3.93-.38,7.07,2.44,10.38,4.24,1.86,1,2.94,1.41,4.51-.3,0.81-.88,2.25-1.19,3.42-1.71,0.79-.35,1.61-0.63,2.46-1-1.05-1.09-2.36-1.85-2.31-2.52,0.07-1,1.12-2.85,1.66-2.82a7.06,7.06,0,0,1,4.08,1.65c1.05,1,1.51,2.56,2.5,4.38l-4.63-.85c-0.33,2.48-1,4.84-.88,7.14,0.25,4-3.35,4.42-5.3,6.31-0.91.89-3.3,0.95-2,2.79,0.92,1.31,2.77,2.93,4.77,1.3,2.75-2.24,4.78-2.47,6.81,1,0.56,1,2.9.89,4.87,0.88l-1.95-2c2.19-2.39,4.38-4.82,6.64-7.18a1.73,1.73,0,0,1,1.49-.47c3,1.57,5.7-.54,7.92-1.53,2.75-1.23,4.85-4.15,6.89-6.62C1053.53,187.88,1054.3,185.74,1055.39,183.73Z" transform="translate(-890.01 -161.24)"/></svg>