<svg id="Layer_1" data-name="Layer 1" xmlns="http://www.w3.org/2000/svg" viewBox="0 0 1066 7"><defs><style>.cls-1{fill:#f8f8f8;}</style></defs><title>dotted line</title><rect class="cls-1" x="1060" width="6" height="7"/><path class="cls-1" d="M931-37H919v-7h12v7Zm-24,0H895v-7h12v7Zm-24,0H871v-7h12v7Zm-24,0H847v-7h12v7Zm-24,0H823v-7h12v7Zm-24,0H799v-7h12v7Zm-24,0H775v-7h12v7Zm-24,0H751v-7h12v7Zm-24,0H727v-7h12v7Zm-24,0H703v-7h12v7Zm-24,0H679v-7h12v7Zm-24,0H655v-7h12v7Zm-24,0H631v-7h12v7Zm-24,0H607v-7h12v7Zm-24,0H583v-7h12v7Zm-24,0H559v-7h12v7Zm-24,0H535v-7h12v7Zm-24,0H511v-7h12v7Zm-24,0H487v-7h12v7Zm-24,0H463v-7h12v7Zm-24,0H439v-7h12v7Zm-24,0H415v-7h12v7Zm-24,0H391v-7h12v7Zm-24,0H367v-7h12v7Zm-24,0H343v-7h12v7Zm-24,0H319v-7h12v7Zm-24,0H295v-7h12v7Zm-24,0H271v-7h12v7Zm-24,0H247v-7h12v7Zm-24,0H223v-7h12v7Zm-24,0H199v-7h12v7Zm-24,0H175v-7h12v7Zm-24,0H151v-7h12v7Zm-24,0H127v-7h12v7Zm-24,0H103v-7h12v7ZM91-37H79v-7H91v7ZM67-37H55v-7H67v7ZM43-37H31v-7H43v7ZM19-37H7v-7H19v7ZM-5-37H-17v-7H-5v7Zm-24,0H-41v-7h12v7Zm-24,0H-65v-7h12v7Zm-24,0H-89v-7h12v7Zm-24,0h-4v-7h4v7Z" transform="translate(117 44)"/><rect class="cls-1" width="6" height="7"/></svg>