<?xml version="1.0" encoding="utf-8"?>
<!-- Generator: Adobe Illustrator 19.2.1, SVG Export Plug-In . SVG Version: 6.00 Build 0)  -->
<svg version="1.1" id="Layer_1" xmlns="http://www.w3.org/2000/svg" xmlns:xlink="http://www.w3.org/1999/xlink" x="0px" y="0px"
	 viewBox="0 0 953.151 383.219" enable-background="new 0 0 953.151 383.219" xml:space="preserve">
<g>
	<g>
		
			<rect x="929.256" y="15.534" transform="matrix(0.7063 -0.7079 0.7079 0.7063 260.3578 665.5754)" fill="#FFFFFF" width="6" height="6.999"/>
	</g>
	<g>
		<path fill="#FFFFFF" d="M22.771,341.625l-4.945-4.955l8.403-8.386l4.945,4.955L22.771,341.625z M39.576,324.853l-4.945-4.954
			l8.402-8.386l4.945,4.954L39.576,324.853z M56.381,308.081l-4.945-4.954l8.402-8.386l4.945,4.954L56.381,308.081z M73.185,291.31
			l-4.944-4.955l8.403-8.386l4.944,4.955L73.185,291.31z M89.99,274.538l-4.945-4.955l8.402-8.386l4.945,4.955L89.99,274.538z
			 M106.795,257.766l-4.945-4.955l8.402-8.385l4.945,4.955L106.795,257.766z M123.601,240.994l-4.945-4.955l8.402-8.386l4.945,4.955
			L123.601,240.994z M140.386,224.414l-4.729-5.16c2.872-2.632,5.985-5.272,9.253-7.848l4.333,5.498
			C146.11,219.372,143.13,221.898,140.386,224.414z M158.623,209.983l-3.984-5.755c3.222-2.231,6.621-4.449,10.103-6.592l3.67,5.961
			C165.036,205.675,161.743,207.824,158.623,209.983z M178.527,197.703l-3.38-6.13c3.461-1.909,7.049-3.784,10.663-5.573
			l3.105,6.273C185.393,194.017,181.898,195.843,178.527,197.703z M199.533,187.294l-2.838-6.399
			c3.65-1.619,7.381-3.182,11.089-4.646l2.571,6.511C206.736,184.189,203.095,185.714,199.533,187.294z M221.353,178.68
			l-2.298-6.612c3.795-1.319,7.645-2.564,11.442-3.702l2.009,6.705C228.805,176.18,225.052,177.395,221.353,178.68z M243.8,171.967
			l-1.695-6.792c3.958-0.988,7.916-1.872,11.764-2.627l1.348,6.869C251.484,170.15,247.644,171.007,243.8,171.967z M266.728,167.498
			l-0.945-6.936c4.108-0.56,8.163-0.975,12.052-1.233l0.464,6.984C274.569,166.561,270.676,166.959,266.728,167.498z M699.629,166
			H694v-7h5.629c1.836,0,3.736-0.042,5.647-0.124l0.301,6.993C703.566,165.956,701.565,166,699.629,166z M682,166h-12v-7h12V166z
			 M658,166h-12v-7h12V166z M634,166h-12v-7h12V166z M610,166h-11v-7h11V166z M587,166h-12v-7h12V166z M563,166h-12v-7h12V166z
			 M539,166h-12v-7h12V166z M515,166h-11v-7h11V166z M492,166h-12v-7h12V166z M468,166h-12v-7h12V166z M444,166h-12v-7h12V166z
			 M421,166h-12v-7h12V166z M397,166h-12v-7h12V166z M373,166h-12v-7h12V166z M349,166h-12v-7h12V166z M326,166h-12v-7h12V166z
			 M302,166h-12v-7h12V166z M717.671,164.879l-0.822-6.951c3.729-0.441,7.607-1.026,11.526-1.738l1.252,6.887
			C725.566,163.815,721.543,164.422,717.671,164.879z M741.431,160.595l-1.619-6.811c3.717-0.883,7.525-1.888,11.321-2.985
			l1.943,6.725C749.174,158.653,745.256,159.686,741.431,160.595z M764.556,153.926l-2.24-6.632c3.669-1.24,7.38-2.582,11.029-3.988
			l2.518,6.531C772.122,151.279,768.317,152.655,764.556,153.926z M786.989,145.281l-2.786-6.422c3.583-1.555,7.17-3.2,10.662-4.891
			l3.051,6.3C794.337,142.001,790.66,143.688,786.989,145.281z M808.624,134.796l-3.32-6.162c3.465-1.867,6.891-3.815,10.183-5.791
			l3.602,6.002C815.704,130.875,812.184,132.878,808.624,134.796z M829.267,122.385l-3.904-5.81c3.304-2.221,6.5-4.502,9.498-6.781
			l4.236,5.573C835.99,117.728,832.683,120.089,829.267,122.385z M848.491,107.718l-4.609-5.268c2.411-2.11,4.71-4.259,6.834-6.388
			l1.603-1.613l4.965,4.934l-1.607,1.618C853.437,103.247,851.021,105.504,848.491,107.718z M865.652,90.965l-4.965-4.935
			l8.369-8.419l4.965,4.935L865.652,90.965z M882.391,74.126l-4.965-4.935l8.369-8.419l4.965,4.935L882.391,74.126z M899.129,57.287
			l-4.965-4.935l8.368-8.419l4.965,4.935L899.129,57.287z M915.866,40.448l-4.965-4.935l8.369-8.419l4.965,4.935L915.866,40.448z"/>
	</g>
	<g>
		
			<rect x="6.789" y="346.017" transform="matrix(0.7075 -0.7068 0.7068 0.7075 -244.1605 109.1677)" fill="#FFFFFF" width="6" height="7"/>
	</g>
</g>
</svg>
