<svg id="Layer_1" data-name="Layer 1" xmlns="http://www.w3.org/2000/svg" viewBox="0 0 362.25 93.52"><defs><style>.cls-1{fill:#fff;}</style></defs><title>logo</title><path class="cls-1" d="M1701.48-272.37h60.9v18.49h-39.8v12.94h36v17.51h-36v27.19h-21.1v-76.12Z" transform="translate(-1701.48 272.37)"/><path class="cls-1" d="M1766.74-225.39v-0.22c0-16.75,13.7-30.78,32.62-30.78s32.41,13.81,32.41,30.56v0.22c0,16.75-13.7,30.78-32.62,30.78S1766.74-208.64,1766.74-225.39Zm44.91,0v-0.22c0-7.18-5.22-13.27-12.51-13.27-7.5,0-12.29,6-12.29,13.05v0.22c0,7.18,5.22,13.27,12.51,13.27C1806.87-212.34,1811.65-218.32,1811.65-225.39Z" transform="translate(-1701.48 272.37)"/><path class="cls-1" d="M1840.47-255.08h20.66v7.83c4-4.89,9-9.13,17.83-9.13,14,0,26.1,11.64,26.1,30.45v0.22c0,19.14-12.07,30.78-26,30.78-8.92,0-14.14-4-17.94-8.48v24.58h-20.66v-76.23Zm44.26,29.47v-0.22c0-7.72-5.33-13.27-12.07-13.27s-12,5.55-12,13.27v0.22c0,7.83,5.33,13.38,12,13.38S1884.73-217.67,1884.73-225.61Z" transform="translate(-1701.48 272.37)"/><path class="cls-1" d="M1911-213.1v-0.22c0-12.18,9.24-18.49,23.06-18.49a45.12,45.12,0,0,1,14.14,2.28v-1c0-6.09-3.81-9.57-11.75-9.57a41.43,41.43,0,0,0-16.2,3.26l-4.24-14.57a59.1,59.1,0,0,1,23.82-4.57c10.55,0,17.73,2.5,22.4,7.18,4.46,4.35,6.31,10.44,6.31,18.7v33.82h-20.44v-6.09c-4,4.46-9.57,7.4-17.29,7.4C1919.64-194.94,1911-201.35,1911-213.1Zm37.41-4.46v-2.72a21.65,21.65,0,0,0-8-1.52c-6,0-9.46,2.94-9.46,7.29v0.22c0,4,3,6.42,7.29,6.42C1944.22-207.88,1948.46-211.69,1948.46-217.56Z" transform="translate(-1701.48 272.37)"/><path class="cls-1" d="M1972.71-255.08h20.23l7.72,29.58,9-29.8h17.07l9.13,30,7.94-29.8h19.9l-18.16,59.27h-17.83l-9.57-30.56-9.79,30.56h-17.73Z" transform="translate(-1701.48 272.37)"/></svg>