<svg id="Layer_1" data-name="Layer 1" xmlns="http://www.w3.org/2000/svg" viewBox="0 0 912.37 235.55"><defs><style>.cls-1{fill:#faab54;}</style></defs><title>orange logo</title><path class="cls-1" d="M-1574.61-2456.36h153.38v46.56h-100.25v32.59h90.66v44.1h-90.66v68.47h-53.14v-191.73Z" transform="translate(1574.61 2456.36)"/><path class="cls-1" d="M-1410.24-2338v-0.55c0-42.18,34.51-77.51,82.17-77.51,47.38,0,81.62,34.78,81.62,77v0.55c0,42.18-34.51,77.51-82.17,77.51C-1376-2261.07-1410.24-2295.86-1410.24-2338Zm113.12,0v-0.55c0-18.08-13.15-33.42-31.5-33.42-18.9,0-31,15.06-31,32.87v0.55c0,18.08,13.15,33.42,31.5,33.42C-1309.17-2305.17-1297.12-2320.24-1297.12-2338Z" transform="translate(1574.61 2456.36)"/><path class="cls-1" d="M-1224.54-2412.81h52v19.72c10.13-12.33,22.73-23,44.92-23,35.33,0,65.73,29.31,65.73,76.69v0.55c0,48.21-30.4,77.51-65.46,77.51-22.46,0-35.61-10.13-45.19-21.36v61.9h-52v-192Zm111.48,74.23v-0.55c0-19.45-13.42-33.42-30.4-33.42-16.71,0-30.13,14-30.13,33.42v0.55c0,19.72,13.42,33.69,30.13,33.69C-1126.48-2304.9-1113.06-2318.59-1113.06-2338.59Z" transform="translate(1574.61 2456.36)"/><path class="cls-1" d="M-1046.78-2307.09v-0.55c0-30.68,23.28-46.56,58.07-46.56a113.65,113.65,0,0,1,35.61,5.75v-2.46c0-15.34-9.59-24.1-29.58-24.1-15.61,0-27.66,3-40.81,8.22l-10.68-36.7c16.71-6.85,34.51-11.5,60-11.5,26.57,0,44.65,6.3,56.42,18.08,11.23,11,15.89,26.29,15.89,47.11v85.18h-51.49V-2280c-10.13,11.23-24.1,18.62-43.55,18.62C-1025.14-2261.35-1046.78-2277.51-1046.78-2307.09Zm94.22-11.23v-6.85a54.52,54.52,0,0,0-20.27-3.83c-15.06,0-23.83,7.4-23.83,18.35v0.55c0,10.13,7.67,16.16,18.35,16.16C-963.24-2293.94-952.56-2303.53-952.56-2318.32Z" transform="translate(1574.61 2456.36)"/><path class="cls-1" d="M-891.48-2412.81h50.94l19.45,74.5,22.73-75h43l23,75.6,20-75h50.12L-708-2263.54h-44.92l-24.1-77-24.65,77h-44.65Z" transform="translate(1574.61 2456.36)"/></svg>